HIERARCHY
ROOT reference
{
  OFFSET 0 0 0
  CHANNELS 6 Xposition Yposition Zposition Zrotation Xrotation Yrotation
  JOINT Hips
  {
    OFFSET 339.145 90.8604 236.464
    CHANNELS 3 Zrotation Xrotation Yrotation
    JOINT RightUpLeg
    {
      OFFSET -9.24113 -1.522 -0.0337757
      CHANNELS 3 Zrotation Xrotation Yrotation
      JOINT RightLeg
      {
        OFFSET 0.0344394 -41.8985 0.100154
        CHANNELS 3 Zrotation Xrotation Yrotation
        JOINT RightFoot
        {
          OFFSET -0.415571 -42.0751 0.023027
          CHANNELS 3 Zrotation Xrotation Yrotation
          End Site
          {
            OFFSET 0 -7.69 17.5
          }
        }
      }
    }
    JOINT LeftUpLeg
    {
      OFFSET 9.30897 -1.67379 -0.0291548
      CHANNELS 3 Zrotation Xrotation Yrotation
      JOINT LeftLeg
      {
        OFFSET 0.0832755 -41.864 -0.14338
        CHANNELS 3 Zrotation Xrotation Yrotation
        JOINT LeftFoot
        {
          OFFSET 0.17151 -41.5225 0.735469
          CHANNELS 3 Zrotation Xrotation Yrotation
          End Site
          {
            OFFSET 0 -7.69 17.5
          }
        }
      }
    }
    JOINT Spine
    {
      OFFSET 0.00853273 14.2903 0.0777264
      CHANNELS 3 Zrotation Xrotation Yrotation
      JOINT Spine1
      {
        OFFSET 0.0173944 9.71323 0.029081
        CHANNELS 3 Zrotation Xrotation Yrotation
        JOINT Spine2
        {
          OFFSET 0.0412483 10.1247 -0.0145163
          CHANNELS 3 Zrotation Xrotation Yrotation
          JOINT Spine3
          {
            OFFSET 0.0279063 9.71793 0.00755232
            CHANNELS 3 Zrotation Xrotation Yrotation
            JOINT Neck
            {
              OFFSET 0.0852486 10.3712 0.0268485
              CHANNELS 3 Zrotation Xrotation Yrotation
              JOINT Head
              {
                OFFSET 0.0739267 9.48251 0.0332551
                CHANNELS 3 Zrotation Xrotation Yrotation
                End Site
                {
                  OFFSET 0 15.95 0
                }
              }
            }
            JOINT RightShoulder
            {
              OFFSET -3.14957 6.95772 0.0300988
              CHANNELS 3 Zrotation Xrotation Yrotation
              JOINT RightArm
              {
                OFFSET -12.7513 0.0411148 0.0791701
                CHANNELS 3 Zrotation Xrotation Yrotation
                JOINT RightForeArm
                {
                  OFFSET -26.4959 0.0361336 0.259434
                  CHANNELS 3 Zrotation Xrotation Yrotation
                  JOINT RightHand
                  {
                    OFFSET -25.9829 -0.0837334 0.191464
                    CHANNELS 3 Zrotation Xrotation Yrotation
                    JOINT RightHandThumb1
                    {
                      OFFSET -2.48905 0.190105 3.12053
                      CHANNELS 3 Zrotation Xrotation Yrotation
                      JOINT RightHandThumb2
                      {
                        OFFSET -3.68274 0 0
                        CHANNELS 3 Zrotation Xrotation Yrotation
                        JOINT RightHandThumb3
                        {
                          OFFSET -2.55832 0 0
                          CHANNELS 3 Zrotation Xrotation Yrotation
                          End Site
                          {
                            OFFSET -2.194 0 0
                          }
                        }
                      }
                    }
                    JOINT RightInHandIndex
                    {
                      OFFSET -3.22368 0.508421 1.97842
                      CHANNELS 3 Zrotation Xrotation Yrotation
                      JOINT RightHandIndex1
                      {
                        OFFSET -5.21684 -0.091368 0.999158
                        CHANNELS 3 Zrotation Xrotation Yrotation
                        JOINT RightHandIndex2
                        {
                          OFFSET -3.61937 0 0
                          CHANNELS 3 Zrotation Xrotation Yrotation
                          JOINT RightHandIndex3
                          {
                            OFFSET -2.0521 0 0
                            CHANNELS 3 Zrotation Xrotation Yrotation
                            End Site
                            {
                              OFFSET -1.805 0 0
                            }
                          }
                        }
                      }
                    }
                    JOINT RightInHandMiddle
                    {
                      OFFSET -3.38211 0.517263 0.756737
                      CHANNELS 3 Zrotation Xrotation Yrotation
                      JOINT RightHandMiddle1
                      {
                        OFFSET -5.17411 -0.084 0.313895
                        CHANNELS 3 Zrotation Xrotation Yrotation
                        JOINT RightHandMiddle2
                        {
                          OFFSET -3.94947 0 0
                          CHANNELS 3 Zrotation Xrotation Yrotation
                          JOINT RightHandMiddle3
                          {
                            OFFSET -2.47579 0 0
                            CHANNELS 3 Zrotation Xrotation Yrotation
                            End Site
                            {
                              OFFSET -1.975 0 0
                            }
                          }
                        }
                      }
                    }
                    JOINT RightInHandRing
                    {
                      OFFSET -3.36516 0.537895 -0.128947
                      CHANNELS 3 Zrotation Xrotation Yrotation
                      JOINT RightHandRing1
                      {
                        OFFSET -4.63474 -0.022105 -0.478947
                        CHANNELS 3 Zrotation Xrotation Yrotation
                        JOINT RightHandRing2
                        {
                          OFFSET -3.44238 0 0
                          CHANNELS 3 Zrotation Xrotation Yrotation
                          JOINT RightHandRing3
                          {
                            OFFSET -2.3881 0 0
                            CHANNELS 3 Zrotation Xrotation Yrotation
                            End Site
                            {
                              OFFSET -1.857 0 0
                            }
                          }
                        }
                      }
                    }
                    JOINT RightInHandPinky
                    {
                      OFFSET -3.16105 0.469368 -1.20179
                      CHANNELS 3 Zrotation Xrotation Yrotation
                      JOINT RightHandPinky1
                      {
                        OFFSET -4.14105 -0.022105 -1.09053
                        CHANNELS 3 Zrotation Xrotation Yrotation
                        JOINT RightHandPinky2
                        {
                          OFFSET -2.75653 0 0
                          CHANNELS 3 Zrotation Xrotation Yrotation
                          JOINT RightHandPinky3
                          {
                            OFFSET -1.74189 0 0
                            CHANNELS 3 Zrotation Xrotation Yrotation
                            End Site
                            {
                              OFFSET -1.645 0 0
                            }
                          }
                        }
                      }
                    }
                  }
                }
              }
            }
            JOINT LeftShoulder
            {
              OFFSET 3.25273 6.91522 -0.0295735
              CHANNELS 3 Zrotation Xrotation Yrotation
              JOINT LeftArm
              {
                OFFSET 12.7785 0.0134102 -0.0213482
                CHANNELS 3 Zrotation Xrotation Yrotation
                JOINT LeftForeArm
                {
                  OFFSET 26.5044 -0.0446277 0.0404034
                  CHANNELS 3 Zrotation Xrotation Yrotation
                  JOINT LeftHand
                  {
                    OFFSET 25.9955 -0.0467726 -0.0166804
                    CHANNELS 3 Zrotation Xrotation Yrotation
                    JOINT LeftHandThumb1
                    {
                      OFFSET 2.48905 0.190105 3.12053
                      CHANNELS 3 Zrotation Xrotation Yrotation
                      JOINT LeftHandThumb2
                      {
                        OFFSET 3.68274 0 0
                        CHANNELS 3 Zrotation Xrotation Yrotation
                        JOINT LeftHandThumb3
                        {
                          OFFSET 2.55832 0 0
                          CHANNELS 3 Zrotation Xrotation Yrotation
                          End Site
                          {
                            OFFSET 2.194 0 0
                          }
                        }
                      }
                    }
                    JOINT LeftInHandIndex
                    {
                      OFFSET 3.22368 0.508421 1.97842
                      CHANNELS 3 Zrotation Xrotation Yrotation
                      JOINT LeftHandIndex1
                      {
                        OFFSET 5.21684 -0.091368 0.999158
                        CHANNELS 3 Zrotation Xrotation Yrotation
                        JOINT LeftHandIndex2
                        {
                          OFFSET 3.61937 0 0
                          CHANNELS 3 Zrotation Xrotation Yrotation
                          JOINT LeftHandIndex3
                          {
                            OFFSET 2.0521 0 0
                            CHANNELS 3 Zrotation Xrotation Yrotation
                            End Site
                            {
                              OFFSET 1.805 0 0
                            }
                          }
                        }
                      }
                    }
                    JOINT LeftInHandMiddle
                    {
                      OFFSET 3.38211 0.517263 0.756737
                      CHANNELS 3 Zrotation Xrotation Yrotation
                      JOINT LeftHandMiddle1
                      {
                        OFFSET 5.17411 -0.084 0.313895
                        CHANNELS 3 Zrotation Xrotation Yrotation
                        JOINT LeftHandMiddle2
                        {
                          OFFSET 3.94947 0 0
                          CHANNELS 3 Zrotation Xrotation Yrotation
                          JOINT LeftHandMiddle3
                          {
                            OFFSET 2.47579 0 0
                            CHANNELS 3 Zrotation Xrotation Yrotation
                            End Site
                            {
                              OFFSET 1.975 0 0
                            }
                          }
                        }
                      }
                    }
                    JOINT LeftInHandRing
                    {
                      OFFSET 3.36516 0.537895 -0.128947
                      CHANNELS 3 Zrotation Xrotation Yrotation
                      JOINT LeftHandRing1
                      {
                        OFFSET 4.63474 -0.022105 -0.478947
                        CHANNELS 3 Zrotation Xrotation Yrotation
                        JOINT LeftHandRing2
                        {
                          OFFSET 3.44238 0 0
                          CHANNELS 3 Zrotation Xrotation Yrotation
                          JOINT LeftHandRing3
                          {
                            OFFSET 2.3881 0 0
                            CHANNELS 3 Zrotation Xrotation Yrotation
                            End Site
                            {
                              OFFSET 1.857 0 0
                            }
                          }
                        }
                      }
                    }
                    JOINT LeftInHandPinky
                    {
                      OFFSET 3.16105 0.469368 -1.20179
                      CHANNELS 3 Zrotation Xrotation Yrotation
                      JOINT LeftHandPinky1
                      {
                        OFFSET 4.14105 -0.022105 -1.09053
                        CHANNELS 3 Zrotation Xrotation Yrotation
                        JOINT LeftHandPinky2
                        {
                          OFFSET 2.75653 0 0
                          CHANNELS 3 Zrotation Xrotation Yrotation
                          JOINT LeftHandPinky3
                          {
                            OFFSET 1.74189 0 0
                            CHANNELS 3 Zrotation Xrotation Yrotation
                            End Site
                            {
                              OFFSET 1.645 0 0
                            }
                          }
                        }
                      }
                    }
                  }
                }
              }
            }
          }
        }
      }
    }
  }
}
MOTION
Frames: 2
Frame Time: 0.00833333
6.000000000000000000e+02 0.000000000000000000e+00 0.000000000000000000e+00 0.000000000000000000e+00 0.000000000000000000e+00 0.000000000000000000e+00 -3.040814935715288048e-01 -4.849542723816263390e+00 -3.228491492219600190e+00 8.009262876666201070e-01 6.773894292614350832e+00 3.660133799294676749e+00 1.059918040996920885e+00 -4.712096871816538801e+00 -1.808318324189468473e+00 -2.171873579565271051e-01 4.380136825073961404e-01 1.636980405871982347e+00 1.297338145902812379e+00 5.680540640923926077e+00 2.459964437029631412e+00 -2.702540594056840551e+00 1.042835712666088238e-01 1.547980766430420818e+00 1.970370552897716954e-01 -2.538625159533650089e-01 2.719088013523926595e+00 -1.242142749799949097e+00 1.547345595966296727e+00 9.372880112420030052e-01 -1.745194600632363480e-01 2.185083544811060596e-01 2.625738648127720065e-01 -3.530868672101051819e-01 2.289343349487537593e-01 6.467251169995310578e-01 4.590472642352073224e-02 1.655661526161974206e-01 -1.208879493253098986e-01 3.583691292812986040e-01 1.252666839646854990e+00 -1.663005453209497886e-01 1.576218703373445384e+00 1.920932616620461664e+00 -2.338835493730511583e+00 -8.907274909621453185e-01 2.190543762654349802e+00 3.158317692839706509e-02 -8.464099691432004136e+00 5.812462286919118926e-01 5.748099404774686949e-01 -1.367399942059408735e+00 3.669742463066081317e+00 -1.569941808650616899e+01 3.248793647716685662e+00 -2.880807104763735804e+00 -1.462233031381532200e+01 0.000000000000000000e+00 0.000000000000000000e+00 0.000000000000000000e+00 -2.655480832127812426e-15 3.755534573754592032e-16 0.000000000000000000e+00 -4.234365977542966640e-16 1.888060310636315816e-15 0.000000000000000000e+00 5.607491727338864279e-17 5.960350239367808907e-16 2.198443891803856651e-15 0.000000000000000000e+00 0.000000000000000000e+00 0.000000000000000000e+00 0.000000000000000000e+00 2.699253984965686033e-15 -3.377662243333917223e-15 0.000000000000000000e+00 7.594858841189586941e-17 3.471227671433905199e-15 5.607491727338864279e-17 5.960350239367808907e-16 2.198443891803856651e-15 0.000000000000000000e+00 1.443508165304647626e-15 3.769292978151984087e-15 0.000000000000000000e+00 -7.849523444564273438e-16 2.488358363770785171e-16 0.000000000000000000e+00 3.841624375828742059e-15 3.774881147559545300e-15 5.607491727338864279e-17 5.960350239367808907e-16 2.198443891803856651e-15 0.000000000000000000e+00 0.000000000000000000e+00 0.000000000000000000e+00 0.000000000000000000e+00 -1.203527375112051513e-15 3.242929113663571988e-15 0.000000000000000000e+00 1.366584415645102055e-15 4.807648331094973093e-15 5.607491727338864279e-17 5.960350239367808907e-16 2.198443891803856651e-15 0.000000000000000000e+00 0.000000000000000000e+00 0.000000000000000000e+00 0.000000000000000000e+00 -3.106620154161957910e-15 1.342860559879496754e-15 0.000000000000000000e+00 1.775527800864316567e-16 3.109167733345247901e-15 2.904779171188506259e-01 -1.235933527359059259e+00 -7.559089586952489892e-01 -3.256456116283519275e+00 8.784679168484877954e-01 1.422672570286338978e+00 -2.768762250458653895e+01 -1.184524901519403173e+01 -2.464954177990884787e+01 -2.537874938741711883e+00 -2.849546660955580180e+00 -8.929062320434288935e+00 0.000000000000000000e+00 0.000000000000000000e+00 0.000000000000000000e+00 3.817632692784690809e-15 5.639218352689844757e-16 0.000000000000000000e+00 4.711009913728143249e-15 -7.171966070709591311e-17 0.000000000000000000e+00 2.780309383640067423e-15 -1.155869064015929504e-15 3.117635478223907614e-15 0.000000000000000000e+00 0.000000000000000000e+00 0.000000000000000000e+00 0.000000000000000000e+00 1.973448609579659020e-15 1.129179574508824057e-15 0.000000000000000000e+00 -7.326249939575445206e-16 5.075582960817075887e-16 2.780309383640067423e-15 -1.155869064015929504e-15 3.117635478223907614e-15 0.000000000000000000e+00 7.344160457916264864e-16 -5.081814489741395240e-15 0.000000000000000000e+00 -2.404574082716975006e-15 2.408883289075211662e-15 0.000000000000000000e+00 -2.182716654737765189e-15 -6.021649963094218299e-16 2.780309383640067423e-15 -1.155869064015929504e-15 3.117635478223907614e-15 0.000000000000000000e+00 0.000000000000000000e+00 0.000000000000000000e+00 0.000000000000000000e+00 3.965407718832060956e-15 -3.016279819882194480e-15 0.000000000000000000e+00 -3.388163070871178695e-16 -4.205730592210540802e-16 2.780309383640067423e-15 -1.155869064015929504e-15 3.117635478223907614e-15 0.000000000000000000e+00 0.000000000000000000e+00 0.000000000000000000e+00 0.000000000000000000e+00 -1.187174978805427746e-15 -2.909046645722469603e-15 0.000000000000000000e+00 -3.337772291584090464e-16 4.660532277996513004e-15
6.000000000000000000e+02 0.000000000000000000e+00 0.000000000000000000e+00 0.000000000000000000e+00 0.000000000000000000e+00 0.000000000000000000e+00 -1.609219371782006358e-01 -5.131455696258996113e+00 -4.156330209190581826e+00 1.580678278715177631e+00 6.932577032374987347e+00 4.548163897084711138e+00 9.547471865543258884e-01 -4.833123889944902274e+00 -1.345569860782327209e+00 -3.063029055394148048e-01 6.485026504842176243e-01 1.720808831659902616e+00 1.871063973012422332e+00 6.129230978353873205e+00 3.156639259621991211e+00 -3.075458859714260029e+00 1.955594598376191595e-01 1.765130841420734509e+00 4.571913655996974746e-01 -2.702784876803281389e-01 3.173313050547514447e+00 -1.439054258113353857e+00 1.342746361360588336e+00 1.247252929203084282e+00 -2.204563492705087224e-01 1.610735100007371079e-01 3.338795671693863820e-01 -4.298737808846654351e-01 1.261825804513191929e-01 7.531656755961437799e-01 4.452351694076820549e-02 1.570969444756930566e-01 -9.395696980648107766e-02 3.203070271132191227e-01 1.139229242666776942e+00 7.958084634687470627e-02 1.560514776476460197e+00 2.032663957516071207e+00 -1.984469966872351776e+00 -8.599984570292451558e-01 2.371607169809176963e+00 -1.321516222271704732e-01 -9.024411119171606543e+00 1.204652705456609740e-01 9.909542532128298165e-01 -1.460362254897535683e+00 3.938148098962278354e+00 -1.532904334941227731e+01 3.671942293684431924e+00 -2.838104685916438275e+00 -1.486113662791372825e+01 0.000000000000000000e+00 0.000000000000000000e+00 0.000000000000000000e+00 -2.530971573925645105e-15 2.228469791265629641e-16 0.000000000000000000e+00 -1.718092546281108151e-16 1.819127747295251596e-15 0.000000000000000000e+00 3.060927580258684909e-16 7.121576632572671703e-16 2.195927602591792058e-15 0.000000000000000000e+00 0.000000000000000000e+00 0.000000000000000000e+00 0.000000000000000000e+00 2.748177276387793407e-15 -3.335327289898552684e-15 0.000000000000000000e+00 4.365605407022944052e-16 3.499124416858161017e-15 3.060927580258684909e-16 7.121576632572671703e-16 2.195927602591792058e-15 0.000000000000000000e+00 1.455022429416055064e-15 3.262331222847912980e-15 0.000000000000000000e+00 -8.757856483568636465e-16 5.534341103416511728e-16 0.000000000000000000e+00 3.955772555853971431e-15 4.007662777719115601e-15 3.060927580258684909e-16 7.121576632572671703e-16 2.195927602591792058e-15 0.000000000000000000e+00 0.000000000000000000e+00 0.000000000000000000e+00 0.000000000000000000e+00 -7.028151089464423819e-16 5.367534099174875084e-15 0.000000000000000000e+00 1.102626081053029170e-15 4.742753879278193945e-15 3.060927580258684909e-16 7.121576632572671703e-16 2.195927602591792058e-15 0.000000000000000000e+00 0.000000000000000000e+00 0.000000000000000000e+00 0.000000000000000000e+00 -2.957258590941367946e-15 1.631300466764578127e-15 0.000000000000000000e+00 4.846959530152079230e-16 3.338242081151739689e-15 1.491950260646803805e-01 -1.372075188000098089e+00 -1.084591137558063689e+00 -3.254282885995680719e+00 8.162219923344791184e-01 9.146182599552719061e-01 -2.728424128206146904e+01 -1.182282418599754159e+01 -2.548041618924423091e+01 -2.461613013159412944e+00 -3.013141868453003358e+00 -8.820724751627377458e+00 0.000000000000000000e+00 0.000000000000000000e+00 0.000000000000000000e+00 3.797935380590701003e-15 5.358129788993072890e-16 0.000000000000000000e+00 4.506646924335920063e-15 1.489674939487310624e-17 0.000000000000000000e+00 2.632346079784350064e-15 -1.109559494492678346e-15 3.375087848891153619e-15 0.000000000000000000e+00 0.000000000000000000e+00 0.000000000000000000e+00 0.000000000000000000e+00 1.789035347008893881e-15 1.704361088505548720e-15 0.000000000000000000e+00 -7.432143709151872203e-16 9.717445561551572819e-16 2.632346079784350064e-15 -1.109559494492678346e-15 3.375087848891153619e-15 0.000000000000000000e+00 6.031087810346940978e-16 -4.884730587879981961e-15 0.000000000000000000e+00 -2.638039995750431318e-15 2.852159652624977505e-15 0.000000000000000000e+00 -2.229257565562710955e-15 4.888777873921331045e-17 2.632346079784350064e-15 -1.109559494492678346e-15 3.375087848891153619e-15 0.000000000000000000e+00 0.000000000000000000e+00 0.000000000000000000e+00 0.000000000000000000e+00 4.113900229627744437e-15 -2.643826670562847934e-15 0.000000000000000000e+00 -3.619037250786029324e-16 6.432333036060394407e-17 2.632346079784350064e-15 -1.109559494492678346e-15 3.375087848891153619e-15 0.000000000000000000e+00 0.000000000000000000e+00 0.000000000000000000e+00 0.000000000000000000e+00 -1.266178967905457333e-15 -2.488527890188410962e-15 0.000000000000000000e+00 -6.697616849997155695e-16 4.544269342664419618e-15
